<svg width="241" height="68" viewBox="0 0 241 68" fill="none" xmlns="http://www.w3.org/2000/svg">
<circle cx="34" cy="34" r="33" stroke="#010101" stroke-width="2"/>
<path d="M42.4024 32.9402C42.3645 29.1409 45.5008 27.3188 45.6409 27.2283C43.8787 24.6496 41.1336 24.2963 40.1554 24.2555C37.8192 24.0189 35.5969 25.6309 34.4112 25.6309C33.2286 25.6309 31.399 24.2905 29.4615 24.3257C26.9151 24.3635 24.5672 25.8063 23.256 28.0868C20.6104 32.6776 22.5785 39.4786 25.1571 43.2018C26.4171 45.0243 27.9196 47.0713 29.8922 46.9981C31.7919 46.9223 32.5103 45.7689 34.807 45.7689C37.1036 45.7689 37.7493 46.9981 39.7596 46.9604C41.8038 46.9224 43.0989 45.103 44.3502 43.275C45.7971 41.1607 46.3929 39.1137 46.4281 39.0086C46.3826 38.9879 42.4419 37.4782 42.4024 32.9402ZM38.6249 21.7907C39.672 20.5204 40.3787 18.7581 40.1859 17C38.6777 17.0614 36.8497 18.0046 35.7676 19.272C34.7967 20.3963 33.9468 22.1907 34.1746 23.9137C35.8582 24.045 37.5768 23.0581 38.6249 21.7907Z" fill="black"/>
<circle cx="120" cy="34" r="33" stroke="#010101" stroke-width="2"/>
<path d="M108.865 28.7822H108.788C107.803 28.7822 107 29.588 107 30.5706V38.3569C107 39.3434 107.803 40.1465 108.788 40.1465H108.867C109.852 40.1465 110.655 39.3407 110.655 38.3569V30.5705C110.654 29.588 109.849 28.7822 108.865 28.7822Z" fill="#010002"/>
<path d="M111.511 41.3623C111.511 42.2667 112.25 43.0033 113.154 43.0033H114.911V47.2091C114.911 48.1968 115.716 49 116.699 49H116.776C117.762 49 118.567 48.1955 118.567 47.2091V43.0033H121.021V47.2091C121.021 48.1968 121.83 49 122.812 49H122.888C123.874 49 124.677 48.1955 124.677 47.2091V43.0033H126.435C127.338 43.0033 128.077 42.2667 128.077 41.3623V29.0679H111.511V41.3623Z" fill="#010002"/>
<path d="M123.92 21.6121L125.315 19.4586C125.405 19.3228 125.365 19.1371 125.228 19.0487C125.093 18.959 124.907 18.9962 124.818 19.1358L123.372 21.3636C122.287 20.9191 121.075 20.6693 119.795 20.6693C118.514 20.6693 117.305 20.9191 116.217 21.3636L114.774 19.1358C114.685 18.9962 114.498 18.959 114.361 19.0487C114.224 19.1371 114.184 19.3228 114.274 19.4586L115.67 21.6121C113.153 22.8458 111.456 25.1709 111.456 27.8381C111.456 28.002 111.466 28.1635 111.48 28.3236H128.112C128.126 28.1635 128.135 28.002 128.135 27.8381C128.135 25.1709 126.436 22.8458 123.92 21.6121ZM115.939 25.4681C115.497 25.4681 115.139 25.1119 115.139 24.6687C115.139 24.2255 115.497 23.8706 115.939 23.8706C116.384 23.8706 116.74 24.2254 116.74 24.6687C116.74 25.112 116.381 25.4681 115.939 25.4681ZM123.65 25.4681C123.208 25.4681 122.849 25.1119 122.849 24.6687C122.849 24.2255 123.208 23.8706 123.65 23.8706C124.093 23.8706 124.449 24.2254 124.449 24.6687C124.449 25.1119 124.093 25.4681 123.65 25.4681Z" fill="#010002"/>
<path d="M130.8 28.7822H130.725C129.74 28.7822 128.934 29.588 128.934 30.5706V38.3569C128.934 39.3434 129.741 40.1465 130.725 40.1465H130.801C131.787 40.1465 132.589 39.3407 132.589 38.3569V30.5705C132.589 29.588 131.785 28.7822 130.8 28.7822Z" fill="#010002"/>
<circle cx="207" cy="34" r="33" stroke="#010101" stroke-width="2"/>
<path d="M192 44.8717L204.296 46.5663V34.8295H192V44.8717Z" fill="black"/>
<path d="M192 33.3149H204.296V21.434L192 23.1286V33.3149Z" fill="black"/>
<path d="M205.648 46.7467L222 49V34.8295V34.8293H205.648V46.7467Z" fill="black"/>
<path d="M205.648 21.2536V33.3149H222V19L205.648 21.2536Z" fill="black"/>
</svg>
